<svg xmlns="http://www.w3.org/2000/svg" viewBox="0 0 1200 630" fill="none">
  <defs>
    <linearGradient id="bgGradient" x1="0%" y1="0%" x2="100%" y2="100%">
      <stop offset="0%" stop-color="#0f172a"/>
      <stop offset="100%" stop-color="#1e293b"/>
    </linearGradient>
    <linearGradient id="tealGradient" x1="0%" y1="0%" x2="100%" y2="0%">
      <stop offset="0%" stop-color="#14b8a6"/>
      <stop offset="50%" stop-color="#10b981"/>
      <stop offset="100%" stop-color="#14b8a6"/>
    </linearGradient>
  </defs>

  <!-- Background -->
  <rect width="1200" height="630" fill="url(#bgGradient)"/>

  <!-- Decorative glow -->
  <ellipse cx="900" cy="315" rx="400" ry="300" fill="#14b8a6" fill-opacity="0.1"/>

  <!-- Heart icon -->
  <g transform="translate(100, 215)">
    <rect width="200" height="200" rx="40" fill="#14b8a6" fill-opacity="0.2"/>
    <path transform="translate(30, 30)" d="M70 130c-3-2-28-21-36-35-6-10-6-21 1-28 7-7 18-7 25 1l10 11 10-11c7-8 18-8 25-1 7 7 7 18 1 28-8 14-33 33-36 35z" fill="white"/>
  </g>

  <!-- Text -->
  <text x="340" y="280" font-family="system-ui, -apple-system, sans-serif" font-size="72" font-weight="700" fill="white">Paceful</text>
  <text x="340" y="370" font-family="system-ui, -apple-system, sans-serif" font-size="36" fill="#94a3b8">Your Emotional Readiness Platform</text>
  <text x="340" y="430" font-family="system-ui, -apple-system, sans-serif" font-size="28" fill="url(#tealGradient)">Track your healing journey with science-backed insights</text>

  <!-- URL -->
  <text x="100" y="580" font-family="system-ui, -apple-system, sans-serif" font-size="24" fill="#64748b">paceful.com</text>
</svg>
